<?xml version="1.0" encoding="utf-8"?>
<!-- Generator: Adobe Illustrator 23.1.0, SVG Export Plug-In . SVG Version: 6.00 Build 0)  -->
<svg version="1.1" id="Layer_1" xmlns="http://www.w3.org/2000/svg" xmlns:xlink="http://www.w3.org/1999/xlink" x="0px" y="0px"
	 viewBox="0 0 25.5 34.3" style="enable-background:new 0 0 25.5 34.3;" xml:space="preserve">
<style type="text/css">
	.st0{fill:#9900D7;}
	.st1{fill:#FFFFFF;}
</style>
<g id="layer101">
	<path d="M12.6,33.3c-0.1-0.1-2.2-3.1-4.7-6.7c-2.5-3.6-4.7-6.8-4.9-7.1c-2.1-3-2.6-6.9-1.4-10.5c0.3-0.8,1-2.3,1.5-3
		c0.6-0.8,1.7-2,2.5-2.6c1.5-1.1,3.1-1.8,5-2.2c0.9-0.2,2.8-0.2,3.8-0.1c5,0.7,9,4.4,10.1,9.4c0.2,1,0.3,2.9,0.1,4
		c-0.3,2-1.1,4-2.3,5.5c-0.2,0.2-2.3,3.3-4.9,7c-2.5,3.6-4.6,6.6-4.6,6.6C12.8,33.4,12.7,33.4,12.6,33.3z"/>
</g>
<g id="layer102">
	<path class="st0" d="M10.8,23c-1.8-0.4-3-1.4-3.7-3c-0.3-0.8-0.4-0.9-0.4-5.5c0-4.5,0-4.6,0.3-5.4c0.5-1.3,1.5-2.4,2.8-2.8
		c0.9-0.3,0.9-0.3,3-0.3c1.7,0,2,0,2.4,0.1c1.9,0.6,3.2,1.9,3.6,3.8c0.1,0.7,0.1,8.6,0,9.2c-0.4,1.8-1.5,3-3.3,3.7L15,23l-2,0
		C11.9,23,10.9,23,10.8,23z M10,17c0.3-0.1,0.4-0.4,0.4-0.8c0-0.4-0.3-0.7-0.8-0.7c-0.4,0-0.8,0.3-0.8,0.8C8.9,16.9,9.5,17.3,10,17z
		 M16.4,16.9c0.3-0.2,0.3-0.5,0.2-0.9c-0.3-0.8-1.4-0.7-1.5,0.1c-0.1,0.5,0.3,0.9,0.8,0.9C16.1,17.1,16.2,17.1,16.4,16.9z"/>
	<path class="st0" d="M4.9,18c-0.2-0.4-1-1.9-1.2-2.5c-0.5-1.2-1-2.7-1.1-3.8c-0.1-0.4-0.1-0.6,0-0.8c0.3-1,1.4-2,3.4-3
		c1.3-0.6,1.2-0.6,1-0.2C6.3,8.4,6.1,9.1,6,9.8c0,0.2-0.1,1.7-0.1,3.2v2.8l-0.4,1.1C5,18.4,5.1,18.3,4.9,18z"/>
	<path class="st0" d="M20.5,18.1c-0.1-0.2-0.5-1.6-0.6-1.8c0-0.1-0.1-0.2-0.1-0.3c0-0.1-0.1-1.5-0.1-3.2c0-3.4,0-3.3-0.4-4.3
		c-0.1-0.3-0.3-0.6-0.5-0.9c-0.2-0.2-0.3-0.4-0.3-0.4c0.1-0.1,1.8,0.9,2.4,1.3c1.2,0.8,1.9,1.5,2.1,2.3c0.1,0.3,0.1,0.4,0,1
		c-0.1,0.7-0.5,2.1-0.7,2.7c0,0.1-0.1,0.3-0.2,0.5c-0.3,0.7-1.2,2.6-1.5,3C20.6,18.2,20.6,18.2,20.5,18.1z"/>
</g>
<g id="layer103">
	<path class="st1" d="M10.8,23c-1.8-0.4-3-1.4-3.7-3c-0.3-0.8-0.4-0.9-0.4-5.5c0-4.5,0-4.6,0.3-5.4c0.5-1.3,1.5-2.4,2.8-2.8
		c0.9-0.3,0.9-0.3,3-0.3c1.7,0,2,0,2.4,0.1c1.9,0.6,3.2,1.9,3.6,3.8c0.1,0.7,0.1,8.6,0,9.2c-0.4,1.8-1.5,3-3.3,3.7L15,23l-2,0
		C11.9,23,10.9,23,10.8,23z M13.3,19.9c1.1-0.4,1.1-1.5,0-1.9c-0.6-0.2-1.5,0.1-1.7,0.6c-0.2,0.3-0.2,0.4,0,0.7
		C11.8,19.9,12.7,20.1,13.3,19.9z M10,17c0.3-0.1,0.4-0.4,0.4-0.8c0-0.4-0.3-0.7-0.8-0.7c-0.4,0-0.8,0.3-0.8,0.8
		C8.9,16.9,9.5,17.3,10,17z M16.4,16.9c0.3-0.2,0.3-0.5,0.2-0.9c-0.3-0.8-1.4-0.7-1.5,0.1c-0.1,0.5,0.3,0.9,0.8,0.9
		C16.1,17.1,16.2,17.1,16.4,16.9z"/>
	<path class="st1" d="M4.9,18c-0.2-0.4-1-1.9-1.2-2.5c-0.5-1.2-1-2.7-1.1-3.8c-0.1-0.4-0.1-0.6,0-0.8c0.3-1,1.4-2,3.4-3
		c1.3-0.6,1.2-0.6,1-0.2C6.3,8.4,6.1,9.1,6,9.8c0,0.2-0.1,1.7-0.1,3.2v2.8l-0.4,1.1C5,18.4,5.1,18.3,4.9,18z"/>
	<path class="st1" d="M20.5,18.1c-0.1-0.2-0.5-1.6-0.6-1.8c0-0.1-0.1-0.2-0.1-0.3c0-0.1-0.1-1.5-0.1-3.2c0-3.4,0-3.3-0.4-4.3
		c-0.1-0.3-0.3-0.6-0.5-0.9c-0.2-0.2-0.3-0.4-0.3-0.4c0.1-0.1,1.8,0.9,2.4,1.3c1.2,0.8,1.9,1.5,2.1,2.3c0.1,0.3,0.1,0.4,0,1
		c-0.1,0.7-0.5,2.1-0.7,2.7c0,0.1-0.1,0.3-0.2,0.5c-0.3,0.7-1.2,2.6-1.5,3C20.6,18.2,20.6,18.2,20.5,18.1z"/>
</g>
</svg>
