<!DOCTYPE svg PUBLIC "-//W3C//DTD SVG 20010904//EN" "http://www.w3.org/TR/2001/REC-SVG-20010904/DTD/svg10.dtd">
<svg version="1.0" xmlns="http://www.w3.org/2000/svg" width="381px" height="519px" viewBox="0 0 3810 5190" preserveAspectRatio="xMidYMid meet">
<g id="layer101" fill="#000000" stroke="none">
 <path d="M1878 5148 c-13 -18 -348 -500 -744 -1071 -395 -571 -748 -1079 -784 -1131 -332 -475 -418 -1100 -229 -1671 44 -134 164 -369 246 -484 91 -127 274 -316 395 -406 241 -182 490 -294 794 -356 143 -29 438 -37 599 -15 799 107 1434 698 1601 1491 35 163 44 464 20 635 -46 325 -174 637 -361 881 -26 32 -372 530 -771 1106 -398 577 -728 1049 -733 1051 -4 1 -19 -12 -33 -30z"/>
 </g>
<g id="layer102" fill="#9900d7" stroke="none">
 <path d="M1595 3514 c-282 -64 -476 -221 -589 -475 -55 -126 -56 -141 -56 -876 0 -715 1 -728 47 -853 76 -204 244 -378 438 -452 141 -53 141 -53 475 -53 277 0 322 2 375 18 307 94 508 307 570 605 23 110 22 1368 0 1469 -65 285 -240 483 -520 587 l-80 30 -320 2 c-176 1 -329 0 -340 -2z m-130 -946 c43 -19 68 -71 63 -129 -7 -70 -52 -109 -125 -109 -70 0 -122 52 -123 123 -1 95 96 156 185 115z m1014 -17 c42 -37 55 -86 39 -137 -41 -122 -228 -104 -245 23 -11 82 43 142 128 143 36 0 52 -6 78 -29z"/>
 <path d="M648 2719 c-38 -64 -154 -300 -198 -399 -81 -184 -156 -437 -180 -606 -10 -69 -10 -90 4 -135 48 -166 216 -315 538 -478 203 -103 195 -101 152 -33 -84 131 -126 234 -144 357 -5 39 -10 267 -10 508 l0 438 -59 172 c-85 249 -73 228 -103 176z"/>
 <path d="M3137 2744 c-8 -29 -87 -257 -97 -279 -4 -11 -12 -29 -16 -40 -5 -11 -11 -243 -15 -515 -6 -541 -5 -529 -70 -686 -17 -40 -50 -103 -74 -141 -24 -37 -42 -69 -40 -71 8 -8 290 139 385 202 197 129 302 246 335 371 13 51 13 69 0 158 -18 118 -79 341 -115 422 -5 11 -19 45 -30 75 -42 110 -184 406 -233 484 -20 32 -25 35 -30 20z"/>
 </g>
<g id="layer103" fill="#ffffff" stroke="none">
 <path d="M1595 3514 c-282 -64 -476 -221 -589 -475 -55 -126 -56 -141 -56 -876 0 -715 1 -728 47 -853 76 -204 244 -378 438 -452 141 -53 141 -53 475 -53 277 0 322 2 375 18 307 94 508 307 570 605 23 110 22 1368 0 1469 -65 285 -240 483 -520 587 l-80 30 -320 2 c-176 1 -329 0 -340 -2z m396 -485 c172 -58 169 -243 -5 -299 -100 -32 -236 13 -276 90 -24 48 -25 71 -4 116 39 82 180 128 285 93z m-526 -461 c43 -19 68 -71 63 -129 -7 -70 -52 -109 -125 -109 -70 0 -122 52 -123 123 -1 95 96 156 185 115z m1014 -17 c42 -37 55 -86 39 -137 -41 -122 -228 -104 -245 23 -11 82 43 142 128 143 36 0 52 -6 78 -29z"/>
 <path d="M648 2719 c-38 -64 -154 -300 -198 -399 -81 -184 -156 -437 -180 -606 -10 -69 -10 -90 4 -135 48 -166 216 -315 538 -478 203 -103 195 -101 152 -33 -84 131 -126 234 -144 357 -5 39 -10 267 -10 508 l0 438 -59 172 c-85 249 -73 228 -103 176z"/>
 <path d="M3137 2744 c-8 -29 -87 -257 -97 -279 -4 -11 -12 -29 -16 -40 -5 -11 -11 -243 -15 -515 -6 -541 -5 -529 -70 -686 -17 -40 -50 -103 -74 -141 -24 -37 -42 -69 -40 -71 8 -8 290 139 385 202 197 129 302 246 335 371 13 51 13 69 0 158 -18 118 -79 341 -115 422 -5 11 -19 45 -30 75 -42 110 -184 406 -233 484 -20 32 -25 35 -30 20z"/>
 </g>

</svg>